<svg xmlns="http://www.w3.org/2000/svg" xmlns:xlink="http://www.w3.org/1999/xlink" width="50" zoomAndPan="magnify" viewBox="0 0 37.5 37.499999" height="50" preserveAspectRatio="xMidYMid meet" version="1.0"><defs><g/><clipPath id="720b726fe1"><path d="M 18 13.636719 L 25 13.636719 L 25 18 L 18 18 Z M 18 13.636719 " clip-rule="nonzero"/></clipPath><clipPath id="74e3050df2"><path d="M 13 13.636719 L 25 13.636719 L 25 25 L 13 25 Z M 13 13.636719 " clip-rule="nonzero"/></clipPath><clipPath id="597001beac"><path d="M 11.304688 19 L 18 19 L 18 28.636719 L 11.304688 28.636719 Z M 11.304688 19 " clip-rule="nonzero"/></clipPath><clipPath id="9682da5975"><path d="M 20 19 L 26.304688 19 L 26.304688 28.636719 L 20 28.636719 Z M 20 19 " clip-rule="nonzero"/></clipPath><clipPath id="11e1af4cda"><path d="M 11.304688 13.636719 L 26.304688 13.636719 L 26.304688 28.636719 L 11.304688 28.636719 Z M 11.304688 13.636719 " clip-rule="nonzero"/></clipPath></defs><path fill="#96b443" d="M 13.441406 18.4375 C 13.570312 18.910156 14.0625 19.125 14.0625 19.625 C 14.0625 20.125 13.707031 20.445312 13.722656 21.089844 C 13.503906 20.503906 13.386719 19.871094 13.386719 19.210938 C 13.386719 18.949219 13.40625 18.6875 13.441406 18.4375 Z M 13.441406 18.4375 " fill-opacity="1" fill-rule="nonzero"/><path fill="#cbdd56" d="M 20.191406 24.5 C 19.769531 24.601562 19.332031 24.65625 18.878906 24.65625 C 18.332031 24.65625 17.808594 24.578125 17.3125 24.433594 C 17.132812 24.378906 16.953125 24.316406 16.78125 24.246094 C 16.734375 24.128906 16.683594 24.011719 16.632812 23.890625 C 16.632812 23.890625 16.695312 23.78125 16.816406 23.664062 C 16.949219 23.53125 17.152344 23.382812 17.410156 23.355469 C 17.648438 23.332031 17.828125 23.394531 17.980469 23.480469 C 18.164062 23.585938 18.382812 23.59375 18.578125 23.511719 C 18.878906 23.386719 19.335938 23.261719 19.558594 23.324219 C 19.789062 23.382812 19.816406 23.648438 19.800781 23.839844 C 19.789062 23.980469 19.839844 24.121094 19.9375 24.226562 Z M 20.191406 24.5 " fill-opacity="1" fill-rule="nonzero"/><path fill="#a7d276" d="M 24.367188 19.210938 C 24.367188 20.242188 24.078125 21.210938 23.574219 22.035156 C 23.398438 22.320312 23.199219 22.589844 22.972656 22.835938 L 23.316406 21.777344 C 23.335938 21.714844 23.347656 21.648438 23.347656 21.585938 C 23.347656 21.324219 23.179688 21.078125 22.910156 20.996094 C 22.617188 20.902344 22.296875 21.039062 22.160156 21.316406 C 21.917969 21.808594 21.53125 22.617188 21.183594 23.402344 C 21.183594 23.402344 21.027344 23.414062 20.855469 23.371094 C 20.683594 23.324219 20.5 23.226562 20.441406 23.007812 C 20.324219 22.570312 20.691406 22.253906 20.441406 21.960938 C 20.195312 21.679688 18.445312 21.40625 18.335938 20.410156 C 18.226562 19.414062 18.855469 18.644531 19.382812 18.570312 C 19.910156 18.5 21.816406 19.050781 22.375 18.9375 C 22.929688 18.824219 23.324219 18.230469 23.683594 18.1875 C 24.023438 18.148438 24.277344 18.375 24.308594 18.402344 C 24.347656 18.664062 24.367188 18.933594 24.367188 19.210938 Z M 24.367188 19.210938 " fill-opacity="1" fill-rule="nonzero"/><path fill="#8bcb8f" d="M 16.980469 14.09375 C 16.847656 14.734375 17.636719 15.109375 17.542969 15.707031 C 17.453125 16.304688 16.691406 16.265625 16.398438 16.625 C 16.105469 16.984375 16.410156 17.433594 15.96875 17.816406 C 15.71875 18.035156 15.335938 18 15.058594 17.933594 C 14.847656 17.886719 14.625 17.96875 14.5 18.148438 C 14.402344 18.285156 14.269531 18.4375 14.121094 18.511719 C 13.785156 18.679688 13.441406 18.4375 13.441406 18.4375 C 13.726562 16.429688 15.117188 14.773438 16.980469 14.09375 Z M 16.980469 14.09375 " fill-opacity="1" fill-rule="nonzero"/><g clip-path="url(#720b726fe1)"><path fill="#349370" d="M 24.078125 17.460938 C 24.078125 17.460938 23.734375 17.859375 23.207031 17.835938 C 22.679688 17.8125 22.53125 17.070312 21.929688 16.960938 C 21.328125 16.851562 21.027344 17.5 20.285156 17.34375 C 19.542969 17.1875 19.746094 16.394531 19.476562 16.035156 C 19.203125 15.675781 18.320312 15.777344 18.238281 15.0625 C 18.152344 14.347656 19.222656 13.769531 19.222656 13.769531 C 21.488281 13.910156 23.378906 15.414062 24.078125 17.460938 Z M 24.078125 17.460938 " fill-opacity="1" fill-rule="nonzero"/></g><g clip-path="url(#74e3050df2)"><path fill="#65c9d1" d="M 24.308594 18.402344 C 24.277344 18.375 24.023438 18.148438 23.683594 18.1875 C 23.324219 18.230469 22.929688 18.824219 22.375 18.9375 C 21.816406 19.050781 19.910156 18.5 19.382812 18.570312 C 18.855469 18.644531 18.226562 19.414062 18.335938 20.410156 C 18.445312 21.40625 20.195312 21.679688 20.441406 21.960938 C 20.691406 22.253906 20.324219 22.570312 20.441406 23.007812 C 20.5 23.226562 20.683594 23.324219 20.855469 23.371094 C 21.027344 23.414062 21.183594 23.402344 21.183594 23.402344 C 21.046875 23.714844 20.910156 24.027344 20.796875 24.316406 C 20.644531 24.371094 20.488281 24.421875 20.328125 24.464844 C 20.28125 24.476562 20.238281 24.488281 20.191406 24.5 L 19.9375 24.226562 C 19.839844 24.121094 19.789062 23.980469 19.800781 23.839844 C 19.816406 23.648438 19.789062 23.382812 19.558594 23.324219 C 19.335938 23.261719 18.878906 23.386719 18.578125 23.511719 C 18.382812 23.59375 18.164062 23.585938 17.980469 23.480469 C 17.828125 23.394531 17.648438 23.332031 17.410156 23.355469 C 17.152344 23.382812 16.949219 23.53125 16.816406 23.664062 C 16.695312 23.78125 16.632812 23.890625 16.632812 23.890625 C 16.242188 22.964844 15.738281 21.910156 15.445312 21.316406 C 15.308594 21.039062 14.988281 20.902344 14.695312 20.996094 C 14.425781 21.078125 14.257812 21.324219 14.257812 21.585938 C 14.257812 21.648438 14.269531 21.714844 14.289062 21.777344 L 14.539062 22.546875 C 14.355469 22.316406 14.191406 22.066406 14.050781 21.804688 C 13.925781 21.578125 13.8125 21.335938 13.722656 21.089844 C 13.707031 20.445312 14.0625 20.125 14.0625 19.625 C 14.0625 19.125 13.570312 18.910156 13.441406 18.4375 C 13.441406 18.4375 13.785156 18.679688 14.121094 18.511719 C 14.269531 18.4375 14.402344 18.285156 14.5 18.148438 C 14.625 17.96875 14.847656 17.886719 15.058594 17.933594 C 15.335938 18 15.71875 18.035156 15.96875 17.816406 C 16.410156 17.433594 16.105469 16.984375 16.398438 16.625 C 16.691406 16.265625 17.453125 16.304688 17.542969 15.707031 C 17.636719 15.109375 16.847656 14.734375 16.980469 14.09375 C 17.570312 13.878906 18.210938 13.761719 18.878906 13.761719 C 18.992188 13.761719 19.109375 13.765625 19.222656 13.769531 C 19.222656 13.769531 18.152344 14.347656 18.238281 15.0625 C 18.320312 15.777344 19.203125 15.675781 19.476562 16.035156 C 19.746094 16.394531 19.542969 17.1875 20.285156 17.34375 C 21.027344 17.5 21.328125 16.851562 21.929688 16.960938 C 22.53125 17.070312 22.679688 17.8125 23.207031 17.835938 C 23.734375 17.859375 24.078125 17.460938 24.078125 17.460938 C 24.183594 17.761719 24.261719 18.078125 24.308594 18.402344 Z M 24.308594 18.402344 " fill-opacity="1" fill-rule="nonzero"/></g><g clip-path="url(#597001beac)"><path fill="#ffd7d2" d="M 12.378906 19.859375 C 12.632812 19.8125 12.871094 19.988281 12.90625 20.238281 C 13.003906 20.972656 13.21875 22.367188 13.5 22.976562 C 13.738281 23.488281 14.308594 23.980469 14.726562 24.292969 C 14.878906 24.40625 15.089844 24.257812 15.03125 24.074219 L 14.539062 22.546875 L 14.289062 21.777344 C 14.269531 21.714844 14.257812 21.648438 14.257812 21.585938 C 14.257812 21.324219 14.425781 21.078125 14.695312 20.996094 C 14.988281 20.902344 15.308594 21.039062 15.445312 21.316406 C 15.738281 21.910156 16.242188 22.964844 16.632812 23.890625 C 16.683594 24.011719 16.734375 24.128906 16.78125 24.246094 C 16.980469 24.742188 17.125 25.171875 17.167969 25.429688 C 17.316406 26.441406 17.363281 28.511719 17.363281 28.511719 L 14.214844 28.511719 L 14.214844 27.964844 C 14.214844 27.78125 14.175781 27.601562 14.097656 27.4375 C 13.484375 26.167969 12.1875 24.855469 11.878906 24.050781 C 11.621094 23.363281 11.484375 20.867188 11.4375 19.867188 C 11.4375 19.859375 11.4375 19.851562 11.4375 19.84375 C 11.4375 19.617188 11.609375 19.417969 11.839844 19.386719 C 12.089844 19.351562 12.324219 19.523438 12.363281 19.773438 Z M 12.378906 19.859375 " fill-opacity="1" fill-rule="nonzero"/></g><g clip-path="url(#9682da5975)"><path fill="#ffd7d2" d="M 20.796875 24.316406 C 20.910156 24.027344 21.046875 23.714844 21.183594 23.402344 C 21.53125 22.617188 21.917969 21.808594 22.160156 21.316406 C 22.296875 21.039062 22.617188 20.902344 22.910156 20.996094 C 23.179688 21.078125 23.347656 21.324219 23.347656 21.585938 C 23.347656 21.648438 23.335938 21.714844 23.316406 21.777344 L 22.972656 22.835938 L 22.574219 24.074219 C 22.515625 24.257812 22.726562 24.40625 22.878906 24.292969 C 23.296875 23.980469 23.867188 23.488281 24.105469 22.976562 C 24.386719 22.367188 24.601562 20.972656 24.699219 20.238281 C 24.734375 19.988281 24.972656 19.8125 25.226562 19.859375 L 25.242188 19.773438 C 25.28125 19.523438 25.515625 19.351562 25.765625 19.386719 C 25.996094 19.417969 26.167969 19.617188 26.167969 19.84375 C 26.167969 19.851562 26.167969 19.859375 26.167969 19.867188 C 26.121094 20.867188 25.984375 23.363281 25.726562 24.050781 C 25.417969 24.855469 24.121094 26.167969 23.507812 27.4375 C 23.429688 27.601562 23.390625 27.78125 23.390625 27.964844 L 23.390625 28.511719 L 20.242188 28.511719 C 20.242188 28.511719 20.289062 26.441406 20.441406 25.429688 C 20.476562 25.183594 20.613281 24.78125 20.796875 24.316406 Z M 20.796875 24.316406 " fill-opacity="1" fill-rule="nonzero"/></g><g clip-path="url(#11e1af4cda)"><path fill="#3a322b" d="M 25.78125 19.269531 C 25.476562 19.226562 25.1875 19.433594 25.125 19.734375 C 25.015625 19.738281 24.90625 19.773438 24.8125 19.839844 C 24.683594 19.933594 24.601562 20.070312 24.582031 20.222656 C 24.480469 20.980469 24.265625 22.339844 23.996094 22.929688 C 23.773438 23.410156 23.226562 23.882812 22.804688 24.195312 C 22.765625 24.226562 22.730469 24.207031 22.714844 24.195312 C 22.703125 24.1875 22.671875 24.160156 22.6875 24.113281 L 23.082031 22.894531 C 23.988281 21.878906 24.488281 20.570312 24.488281 19.210938 C 24.488281 18.933594 24.46875 18.667969 24.429688 18.402344 C 24.035156 15.714844 21.695312 13.640625 18.878906 13.640625 C 16.058594 13.640625 13.71875 15.714844 13.324219 18.40625 C 13.324219 18.410156 13.324219 18.410156 13.324219 18.414062 C 13.324219 18.417969 13.324219 18.421875 13.324219 18.425781 C 13.285156 18.683594 13.265625 18.945312 13.265625 19.210938 C 13.265625 20.449219 13.667969 21.625 14.429688 22.601562 L 14.917969 24.113281 C 14.933594 24.160156 14.902344 24.1875 14.890625 24.195312 C 14.875 24.207031 14.839844 24.226562 14.800781 24.195312 C 14.378906 23.882812 13.832031 23.410156 13.609375 22.929688 C 13.339844 22.339844 13.125 20.980469 13.023438 20.222656 C 13.003906 20.070312 12.921875 19.933594 12.792969 19.839844 C 12.699219 19.773438 12.589844 19.738281 12.480469 19.734375 C 12.417969 19.433594 12.128906 19.226562 11.824219 19.269531 C 11.523438 19.3125 11.304688 19.570312 11.320312 19.871094 C 11.367188 20.90625 11.503906 23.394531 11.769531 24.089844 C 11.921875 24.5 12.300781 25.003906 12.738281 25.589844 C 13.179688 26.179688 13.679688 26.84375 13.988281 27.488281 C 14.058594 27.632812 14.097656 27.796875 14.097656 27.964844 L 14.097656 28.511719 C 14.097656 28.542969 14.109375 28.574219 14.132812 28.597656 C 14.152344 28.617188 14.183594 28.632812 14.214844 28.632812 L 17.359375 28.628906 C 17.394531 28.628906 17.425781 28.617188 17.445312 28.59375 C 17.46875 28.570312 17.480469 28.539062 17.480469 28.507812 C 17.480469 28.421875 17.4375 26.417969 17.285156 25.414062 C 17.25 25.191406 17.140625 24.851562 16.988281 24.453125 C 17.59375 24.667969 18.226562 24.777344 18.878906 24.777344 C 19.335938 24.777344 19.789062 24.71875 20.230469 24.613281 C 20.230469 24.613281 20.234375 24.613281 20.234375 24.609375 C 20.355469 24.582031 20.476562 24.550781 20.59375 24.511719 C 20.453125 24.882812 20.351562 25.203125 20.320312 25.414062 C 20.167969 26.417969 20.125 28.421875 20.125 28.507812 C 20.125 28.539062 20.136719 28.570312 20.160156 28.59375 C 20.179688 28.617188 20.210938 28.628906 20.246094 28.628906 L 23.390625 28.632812 C 23.421875 28.632812 23.453125 28.617188 23.472656 28.597656 C 23.496094 28.574219 23.507812 28.542969 23.507812 28.511719 L 23.507812 27.964844 C 23.507812 27.796875 23.546875 27.632812 23.617188 27.488281 C 23.925781 26.84375 24.425781 26.175781 24.867188 25.589844 C 25.304688 25.003906 25.683594 24.5 25.835938 24.089844 C 26.101562 23.390625 26.238281 20.90625 26.285156 19.871094 C 26.300781 19.570312 26.082031 19.3125 25.78125 19.269531 Z M 23.292969 22.242188 L 23.433594 21.8125 C 23.492188 21.625 23.476562 21.421875 23.382812 21.246094 C 23.292969 21.070312 23.136719 20.941406 22.949219 20.882812 C 22.597656 20.769531 22.210938 20.933594 22.050781 21.261719 C 21.78125 21.816406 21.425781 22.5625 21.101562 23.285156 C 20.960938 23.28125 20.625 23.242188 20.554688 22.976562 C 20.511719 22.808594 20.554688 22.65625 20.59375 22.503906 C 20.648438 22.308594 20.710938 22.089844 20.53125 21.882812 C 20.4375 21.777344 20.222656 21.691406 19.929688 21.574219 C 19.335938 21.339844 18.523438 21.019531 18.457031 20.398438 C 18.351562 19.449219 18.945312 18.75 19.398438 18.691406 C 19.628906 18.65625 20.191406 18.765625 20.738281 18.867188 C 21.429688 18.996094 22.082031 19.121094 22.398438 19.054688 C 22.726562 18.988281 22.992188 18.777344 23.226562 18.59375 C 23.402344 18.453125 23.566406 18.320312 23.699219 18.304688 C 23.933594 18.277344 24.125 18.40625 24.195312 18.464844 C 24.230469 18.707031 24.25 18.957031 24.25 19.210938 C 24.25 20.300781 23.914062 21.355469 23.292969 22.242188 Z M 23.941406 17.429688 C 23.835938 17.527344 23.570312 17.730469 23.210938 17.71875 C 23 17.707031 22.851562 17.542969 22.683594 17.351562 C 22.5 17.140625 22.292969 16.90625 21.949219 16.84375 C 21.628906 16.785156 21.386719 16.914062 21.148438 17.039062 C 20.898438 17.171875 20.660156 17.300781 20.308594 17.226562 C 19.898438 17.140625 19.835938 16.839844 19.761719 16.492188 C 19.722656 16.304688 19.679688 16.109375 19.570312 15.964844 C 19.445312 15.796875 19.238281 15.722656 19.019531 15.640625 C 18.699219 15.527344 18.402344 15.417969 18.355469 15.046875 C 18.289062 14.484375 19.085938 13.988281 19.25 13.894531 C 21.421875 14.042969 23.238281 15.472656 23.941406 17.429688 Z M 16.847656 14.273438 C 16.863281 14.558594 17.019531 14.796875 17.164062 15.007812 C 17.316406 15.234375 17.464844 15.445312 17.425781 15.6875 C 17.378906 15.984375 17.132812 16.089844 16.84375 16.210938 C 16.644531 16.296875 16.4375 16.386719 16.304688 16.550781 C 16.152344 16.738281 16.136719 16.949219 16.125 17.136719 C 16.109375 17.355469 16.097656 17.546875 15.890625 17.726562 C 15.675781 17.910156 15.335938 17.878906 15.085938 17.820312 C 14.824219 17.757812 14.558594 17.859375 14.402344 18.078125 C 14.289062 18.238281 14.171875 18.351562 14.066406 18.40625 C 13.875 18.503906 13.671875 18.425781 13.570312 18.375 C 13.867188 16.511719 15.140625 14.96875 16.847656 14.273438 Z M 13.519531 18.855469 C 13.5625 18.917969 13.609375 18.976562 13.65625 19.03125 C 13.808594 19.222656 13.941406 19.386719 13.941406 19.625 C 13.941406 19.832031 13.871094 20.003906 13.792969 20.207031 C 13.753906 20.3125 13.710938 20.421875 13.675781 20.542969 C 13.5625 20.113281 13.503906 19.667969 13.503906 19.210938 C 13.503906 19.089844 13.511719 18.972656 13.519531 18.855469 Z M 17.238281 28.390625 L 14.335938 28.394531 L 14.335938 27.964844 C 14.335938 27.761719 14.289062 27.5625 14.207031 27.382812 C 13.886719 26.722656 13.378906 26.042969 12.929688 25.445312 C 12.523438 24.898438 12.136719 24.382812 11.992188 24.007812 C 11.734375 23.320312 11.59375 20.660156 11.558594 19.859375 C 11.550781 19.683594 11.679688 19.53125 11.855469 19.503906 C 11.871094 19.503906 11.886719 19.503906 11.902344 19.503906 C 12.066406 19.503906 12.210938 19.617188 12.242188 19.777344 C 12.015625 19.871094 11.867188 20.109375 11.894531 20.359375 C 12.011719 21.429688 12.230469 23.292969 12.371094 23.753906 C 12.558594 24.382812 13.109375 24.945312 13.132812 24.96875 C 13.179688 25.015625 13.253906 25.015625 13.300781 24.96875 C 13.347656 24.921875 13.347656 24.847656 13.304688 24.800781 C 13.296875 24.796875 12.769531 24.261719 12.601562 23.6875 C 12.460938 23.226562 12.226562 21.1875 12.132812 20.332031 C 12.113281 20.164062 12.230469 20.007812 12.398438 19.976562 C 12.488281 19.960938 12.578125 19.980469 12.652344 20.035156 C 12.726562 20.085938 12.773438 20.164062 12.785156 20.253906 C 12.890625 21.027344 13.105469 22.410156 13.394531 23.027344 C 13.636719 23.554688 14.214844 24.058594 14.65625 24.386719 C 14.769531 24.46875 14.914062 24.472656 15.027344 24.390625 C 15.144531 24.308594 15.1875 24.171875 15.144531 24.039062 L 14.402344 21.738281 C 14.359375 21.613281 14.371094 21.476562 14.433594 21.355469 C 14.496094 21.238281 14.601562 21.148438 14.730469 21.109375 C 14.96875 21.035156 15.230469 21.144531 15.339844 21.367188 C 15.65625 22.019531 16.269531 23.292969 16.667969 24.289062 C 16.667969 24.292969 16.667969 24.292969 16.667969 24.292969 C 16.863281 24.777344 17.011719 25.199219 17.046875 25.449219 C 17.175781 26.296875 17.226562 27.933594 17.238281 28.390625 Z M 16.871094 24.152344 C 16.839844 24.070312 16.804688 23.988281 16.769531 23.902344 C 16.851562 23.789062 17.085938 23.507812 17.421875 23.472656 C 17.601562 23.457031 17.761719 23.492188 17.921875 23.582031 C 18.132812 23.703125 18.394531 23.71875 18.625 23.625 C 18.929688 23.496094 19.347656 23.390625 19.527344 23.4375 C 19.675781 23.476562 19.691406 23.671875 19.679688 23.832031 C 19.667969 24.007812 19.730469 24.179688 19.847656 24.308594 L 19.960938 24.429688 C 19.605469 24.5 19.246094 24.539062 18.878906 24.539062 C 18.183594 24.539062 17.507812 24.410156 16.871094 24.152344 Z M 20.230469 24.367188 L 20.023438 24.144531 C 19.949219 24.066406 19.914062 23.957031 19.921875 23.847656 C 19.953125 23.378906 19.726562 23.246094 19.589844 23.207031 C 19.308594 23.132812 18.792969 23.296875 18.53125 23.402344 C 18.371094 23.472656 18.1875 23.460938 18.042969 23.378906 C 17.835938 23.257812 17.632812 23.214844 17.398438 23.238281 C 17.054688 23.269531 16.804688 23.488281 16.664062 23.652344 C 16.304688 22.824219 15.871094 21.910156 15.554688 21.261719 C 15.394531 20.933594 15.007812 20.769531 14.65625 20.882812 C 14.46875 20.941406 14.3125 21.070312 14.222656 21.246094 C 14.136719 21.40625 14.117188 21.585938 14.160156 21.761719 C 14.035156 21.539062 13.929688 21.308594 13.84375 21.070312 C 13.835938 20.757812 13.929688 20.519531 14.015625 20.292969 C 14.097656 20.089844 14.179688 19.875 14.179688 19.625 C 14.179688 19.304688 14.007812 19.089844 13.84375 18.882812 C 13.785156 18.8125 13.730469 18.742188 13.679688 18.667969 C 13.738281 18.679688 13.800781 18.691406 13.867188 18.691406 C 13.964844 18.691406 14.070312 18.671875 14.171875 18.617188 C 14.320312 18.546875 14.460938 18.410156 14.601562 18.214844 C 14.699219 18.074219 14.867188 18.011719 15.03125 18.050781 C 15.464844 18.15625 15.816406 18.105469 16.046875 17.90625 C 16.328125 17.660156 16.347656 17.390625 16.363281 17.152344 C 16.375 16.980469 16.386719 16.832031 16.492188 16.699219 C 16.589844 16.582031 16.757812 16.507812 16.941406 16.429688 C 17.246094 16.300781 17.597656 16.152344 17.664062 15.726562 C 17.714844 15.390625 17.535156 15.128906 17.363281 14.875 C 17.210938 14.648438 17.066406 14.4375 17.089844 14.183594 C 17.636719 13.992188 18.226562 13.882812 18.839844 13.878906 C 18.507812 14.125 18.058594 14.5625 18.117188 15.074219 C 18.179688 15.589844 18.597656 15.742188 18.933594 15.867188 C 19.121094 15.933594 19.296875 15.996094 19.378906 16.105469 C 19.457031 16.207031 19.492188 16.371094 19.527344 16.539062 C 19.601562 16.898438 19.695312 17.339844 20.257812 17.460938 C 20.695312 17.550781 20.996094 17.390625 21.261719 17.25 C 21.480469 17.132812 21.667969 17.035156 21.90625 17.078125 C 22.167969 17.125 22.328125 17.308594 22.503906 17.507812 C 22.691406 17.722656 22.882812 17.941406 23.199219 17.957031 C 23.21875 17.957031 23.234375 17.957031 23.25 17.957031 C 23.597656 17.957031 23.867188 17.796875 24.019531 17.675781 C 24.066406 17.832031 24.109375 17.988281 24.140625 18.152344 C 24.019531 18.09375 23.855469 18.046875 23.671875 18.070312 C 23.46875 18.09375 23.28125 18.246094 23.078125 18.40625 C 22.863281 18.574219 22.621094 18.765625 22.347656 18.820312 C 22.078125 18.875 21.390625 18.746094 20.78125 18.632812 C 20.191406 18.523438 19.636719 18.417969 19.367188 18.453125 C 18.730469 18.539062 18.105469 19.402344 18.21875 20.425781 C 18.300781 21.1875 19.226562 21.554688 19.839844 21.796875 C 20.0625 21.882812 20.292969 21.976562 20.347656 22.039062 C 20.441406 22.144531 20.417969 22.25 20.363281 22.441406 C 20.320312 22.605469 20.261719 22.808594 20.324219 23.039062 C 20.394531 23.308594 20.640625 23.476562 21.003906 23.515625 C 20.894531 23.757812 20.796875 23.996094 20.707031 24.222656 C 20.550781 24.277344 20.390625 24.324219 20.230469 24.367188 Z M 25.613281 24.007812 C 25.46875 24.382812 25.082031 24.898438 24.675781 25.445312 C 24.226562 26.042969 23.71875 26.722656 23.398438 27.382812 C 23.316406 27.5625 23.269531 27.761719 23.269531 27.964844 L 23.269531 28.394531 L 20.367188 28.390625 C 20.378906 27.933594 20.429688 26.296875 20.558594 25.449219 C 20.59375 25.210938 20.726562 24.820312 20.90625 24.367188 C 20.90625 24.363281 20.90625 24.363281 20.90625 24.363281 C 21.308594 23.355469 21.941406 22.035156 22.269531 21.367188 C 22.375 21.144531 22.636719 21.035156 22.875 21.109375 C 23.003906 21.148438 23.109375 21.238281 23.171875 21.355469 C 23.234375 21.476562 23.246094 21.613281 23.203125 21.738281 L 22.460938 24.039062 C 22.417969 24.171875 22.460938 24.308594 22.578125 24.390625 C 22.691406 24.472656 22.839844 24.46875 22.949219 24.386719 C 23.390625 24.058594 23.96875 23.554688 24.210938 23.027344 C 24.5 22.410156 24.714844 21.027344 24.820312 20.253906 C 24.832031 20.164062 24.878906 20.085938 24.953125 20.035156 C 25.027344 19.980469 25.117188 19.960938 25.207031 19.976562 C 25.375 20.007812 25.492188 20.164062 25.472656 20.332031 C 25.378906 21.1875 25.144531 23.226562 25.003906 23.6875 C 24.835938 24.257812 24.308594 24.796875 24.304688 24.800781 C 24.257812 24.847656 24.257812 24.921875 24.304688 24.96875 C 24.351562 25.015625 24.425781 25.015625 24.472656 24.96875 C 24.496094 24.945312 25.046875 24.382812 25.234375 23.753906 C 25.375 23.292969 25.59375 21.429688 25.710938 20.359375 C 25.738281 20.105469 25.59375 19.871094 25.363281 19.777344 C 25.398438 19.601562 25.570312 19.480469 25.75 19.503906 C 25.925781 19.53125 26.054688 19.683594 26.046875 19.859375 C 26.011719 20.660156 25.871094 23.320312 25.613281 24.007812 Z M 25.613281 24.007812 " fill-opacity="1" fill-rule="nonzero"/></g><g fill="#5eb23f" fill-opacity="1"><g transform="translate(10.158591, 17.859457)"><g><path d="M 0.1875 -0.625 C 0.164062 -0.539062 0.117188 -0.390625 0.046875 -0.171875 L -1.3125 -0.515625 C -1.28125 -0.734375 -1.25 -0.890625 -1.21875 -0.984375 C -1.195312 -1.085938 -1.164062 -1.171875 -1.125 -1.234375 C -1.082031 -1.296875 -1.035156 -1.34375 -0.984375 -1.375 C -0.941406 -1.40625 -0.878906 -1.425781 -0.796875 -1.4375 C -0.679688 -1.4375 -0.546875 -1.414062 -0.390625 -1.375 C -0.128906 -1.3125 0.0390625 -1.21875 0.125 -1.09375 C 0.21875 -0.96875 0.238281 -0.8125 0.1875 -0.625 Z M -0.109375 -0.53125 C -0.0976562 -0.582031 -0.0820312 -0.640625 -0.0625 -0.703125 C -0.0507812 -0.773438 -0.0507812 -0.820312 -0.0625 -0.84375 C -0.101562 -0.925781 -0.238281 -0.992188 -0.46875 -1.046875 C -0.695312 -1.109375 -0.835938 -1.117188 -0.890625 -1.078125 C -0.921875 -1.046875 -0.941406 -1 -0.953125 -0.9375 L -1 -0.75 Z M -0.109375 -0.53125 "/></g></g></g><g fill="#5eb23f" fill-opacity="1"><g transform="translate(10.550128, 16.417441)"><g><path d="M 0.0625 -0.15625 L -1.234375 -0.71875 L -0.890625 -1.5 L -0.640625 -1.390625 L -0.859375 -0.890625 L -0.59375 -0.765625 L -0.40625 -1.203125 L -0.15625 -1.109375 L -0.34375 -0.671875 L -0.0625 -0.546875 L 0.15625 -1.046875 L 0.40625 -0.9375 Z M 0.0625 -0.15625 "/></g></g></g><g fill="#5eb23f" fill-opacity="1"><g transform="translate(11.046852, 15.269478)"><g><path d="M -0.15625 -1.546875 C 0.0195312 -1.429688 0.0859375 -1.28125 0.046875 -1.09375 L 0.046875 -1.078125 L 0.6875 -1.078125 L 0.5 -0.78125 L -0.0625 -0.8125 L -0.15625 -0.671875 L 0.265625 -0.40625 L 0.09375 -0.140625 L -0.453125 -0.5 L -1.09375 -0.890625 C -0.945312 -1.179688 -0.863281 -1.34375 -0.84375 -1.375 C -0.65625 -1.664062 -0.425781 -1.722656 -0.15625 -1.546875 Z M -0.375 -0.8125 C -0.320312 -0.882812 -0.273438 -0.953125 -0.234375 -1.015625 C -0.191406 -1.078125 -0.179688 -1.125 -0.203125 -1.15625 C -0.222656 -1.195312 -0.269531 -1.242188 -0.34375 -1.296875 C -0.425781 -1.347656 -0.476562 -1.363281 -0.5 -1.34375 C -0.539062 -1.332031 -0.582031 -1.289062 -0.625 -1.21875 C -0.675781 -1.144531 -0.707031 -1.082031 -0.71875 -1.03125 Z M -0.375 -0.8125 "/></g></g></g><g fill="#5eb23f" fill-opacity="1"><g transform="translate(11.916546, 13.980423)"><g/></g></g><g fill="#5eb23f" fill-opacity="1"><g transform="translate(12.325133, 13.471167)"><g><path d="M 0.015625 -1.546875 C -0.128906 -1.453125 -0.234375 -1.375 -0.296875 -1.3125 C -0.359375 -1.257812 -0.390625 -1.210938 -0.390625 -1.171875 C -0.398438 -1.097656 -0.320312 -0.972656 -0.15625 -0.796875 C -0.0820312 -0.710938 -0.015625 -0.648438 0.046875 -0.609375 C 0.109375 -0.578125 0.160156 -0.5625 0.203125 -0.5625 C 0.242188 -0.5625 0.28125 -0.578125 0.3125 -0.609375 C 0.351562 -0.648438 0.390625 -0.703125 0.421875 -0.765625 C 0.460938 -0.835938 0.503906 -0.910156 0.546875 -0.984375 L 0.765625 -0.890625 C 0.765625 -0.859375 0.757812 -0.828125 0.75 -0.796875 C 0.738281 -0.765625 0.707031 -0.710938 0.65625 -0.640625 C 0.613281 -0.566406 0.5625 -0.503906 0.5 -0.453125 C 0.375 -0.328125 0.234375 -0.269531 0.078125 -0.28125 C -0.078125 -0.289062 -0.238281 -0.382812 -0.40625 -0.5625 C -0.570312 -0.738281 -0.664062 -0.898438 -0.6875 -1.046875 C -0.695312 -1.097656 -0.691406 -1.15625 -0.671875 -1.21875 C -0.648438 -1.28125 -0.625 -1.332031 -0.59375 -1.375 C -0.5625 -1.425781 -0.523438 -1.472656 -0.484375 -1.515625 C -0.441406 -1.554688 -0.382812 -1.597656 -0.3125 -1.640625 C -0.25 -1.691406 -0.1875 -1.734375 -0.125 -1.765625 Z M 0.015625 -1.546875 "/></g></g></g><g fill="#5eb23f" fill-opacity="1"><g transform="translate(13.342541, 12.52886)"><g><path d="M 0.25 -0.171875 L -0.015625 0.015625 L -0.484375 -1.375 L -0.171875 -1.578125 L 0.953125 -0.65625 L 0.6875 -0.484375 L 0.453125 -0.6875 L 0.140625 -0.46875 Z M 0.25 -0.875 L -0.171875 -1.25 L -0.171875 -1.234375 L 0.03125 -0.71875 Z M 0.25 -0.875 "/></g></g></g><g fill="#5eb23f" fill-opacity="1"><g transform="translate(14.408091, 11.796141)"><g><path d="M 0.6875 -1.390625 C 0.78125 -1.191406 0.753906 -1.03125 0.609375 -0.90625 L 0.609375 -0.890625 L 1.15625 -0.546875 L 0.828125 -0.390625 L 0.375 -0.734375 L 0.21875 -0.65625 L 0.4375 -0.203125 L 0.15625 -0.078125 L -0.125 -0.671875 L -0.4375 -1.34375 C -0.164062 -1.5 -0.0078125 -1.582031 0.03125 -1.59375 C 0.34375 -1.738281 0.5625 -1.671875 0.6875 -1.390625 Z M 0.109375 -0.890625 C 0.179688 -0.921875 0.25 -0.953125 0.3125 -0.984375 C 0.382812 -1.015625 0.425781 -1.050781 0.4375 -1.09375 C 0.445312 -1.132812 0.429688 -1.195312 0.390625 -1.28125 C 0.347656 -1.363281 0.3125 -1.410156 0.28125 -1.421875 C 0.25 -1.421875 0.195312 -1.398438 0.125 -1.359375 C 0.0507812 -1.328125 -0.0078125 -1.296875 -0.0625 -1.265625 Z M 0.109375 -0.890625 "/></g></g></g><g fill="#5eb23f" fill-opacity="1"><g transform="translate(15.798929, 11.155706)"><g><path d="M 0.25 -1.5625 C 0.5625 -1.65625 0.753906 -1.570312 0.828125 -1.3125 C 0.847656 -1.238281 0.847656 -1.171875 0.828125 -1.109375 C 0.816406 -1.054688 0.789062 -1.015625 0.75 -0.984375 L 0.75 -0.96875 C 0.894531 -0.945312 0.988281 -0.867188 1.03125 -0.734375 C 1.070312 -0.566406 1.054688 -0.4375 0.984375 -0.34375 C 0.910156 -0.25 0.804688 -0.179688 0.671875 -0.140625 C 0.546875 -0.109375 0.378906 -0.0820312 0.171875 -0.0625 L 0 -0.671875 L -0.203125 -1.40625 C -0.0234375 -1.476562 0.125 -1.53125 0.25 -1.5625 Z M 0.40625 -0.34375 C 0.488281 -0.351562 0.554688 -0.367188 0.609375 -0.390625 C 0.671875 -0.410156 0.707031 -0.4375 0.71875 -0.46875 C 0.738281 -0.507812 0.738281 -0.566406 0.71875 -0.640625 C 0.695312 -0.710938 0.664062 -0.753906 0.625 -0.765625 C 0.59375 -0.785156 0.546875 -0.785156 0.484375 -0.765625 L 0.3125 -0.71875 Z M 0.234375 -0.953125 L 0.421875 -1.015625 C 0.472656 -1.023438 0.503906 -1.039062 0.515625 -1.0625 C 0.535156 -1.09375 0.535156 -1.132812 0.515625 -1.1875 C 0.503906 -1.25 0.484375 -1.289062 0.453125 -1.3125 C 0.421875 -1.332031 0.378906 -1.332031 0.328125 -1.3125 L 0.15625 -1.25 Z M 0.234375 -0.953125 "/></g></g></g><g fill="#5eb23f" fill-opacity="1"><g transform="translate(17.199806, 10.775637)"><g><path d="M 0.921875 -0.09375 C 0.859375 -0.0625 0.78125 -0.0390625 0.6875 -0.03125 C 0.601562 -0.03125 0.523438 -0.0351562 0.453125 -0.046875 C 0.390625 -0.0546875 0.328125 -0.0859375 0.265625 -0.140625 C 0.128906 -0.242188 0.0507812 -0.4375 0.03125 -0.71875 C -0.0078125 -1.039062 0.046875 -1.257812 0.203125 -1.375 C 0.296875 -1.445312 0.414062 -1.488281 0.5625 -1.5 C 0.789062 -1.53125 0.957031 -1.476562 1.0625 -1.34375 C 1.144531 -1.226562 1.203125 -1.054688 1.234375 -0.828125 C 1.253906 -0.546875 1.210938 -0.34375 1.109375 -0.21875 C 1.054688 -0.164062 0.992188 -0.125 0.921875 -0.09375 Z M 0.421875 -1.171875 C 0.390625 -1.148438 0.363281 -1.101562 0.34375 -1.03125 C 0.332031 -0.96875 0.332031 -0.875 0.34375 -0.75 C 0.363281 -0.625 0.382812 -0.523438 0.40625 -0.453125 C 0.4375 -0.390625 0.46875 -0.347656 0.5 -0.328125 C 0.539062 -0.316406 0.59375 -0.3125 0.65625 -0.3125 C 0.726562 -0.320312 0.785156 -0.335938 0.828125 -0.359375 C 0.898438 -0.410156 0.925781 -0.554688 0.90625 -0.796875 C 0.875 -1.035156 0.820312 -1.171875 0.75 -1.203125 C 0.707031 -1.222656 0.648438 -1.226562 0.578125 -1.21875 C 0.515625 -1.21875 0.460938 -1.203125 0.421875 -1.171875 Z M 0.421875 -1.171875 "/></g></g></g><g fill="#5eb23f" fill-opacity="1"><g transform="translate(18.731053, 10.634353)"><g><path d="M 0.28125 -1.390625 L 0.671875 -1.359375 L 1.015625 -0.328125 L 1.03125 -0.328125 L 1.09375 -1.328125 L 1.375 -1.3125 L 1.265625 0.09375 L 0.875 0.0625 L 0.515625 -0.96875 L 0.453125 0.03125 L 0.171875 0.015625 Z M 0.28125 -1.390625 "/></g></g></g><g fill="#5eb23f" fill-opacity="1"><g transform="translate(20.314174, 10.798564)"><g><path d="M 0.15625 -0.484375 L 0.21875 -0.75 L 0.71875 -0.640625 L 0.65625 -0.375 Z M 0.15625 -0.484375 "/></g></g></g><g fill="#5eb23f" fill-opacity="1"><g transform="translate(21.071855, 10.937231)"><g><path d="M 0.953125 -0.796875 L 1.296875 -0.671875 L 1.171875 0.09375 L 1.1875 0.09375 L 1.6875 -0.859375 L 1.96875 -0.75 L 1.265625 0.484375 L 0.90625 0.34375 L 1.046875 -0.46875 L 1.03125 -0.46875 L 0.578125 0.21875 L 0.21875 0.078125 L 0.53125 -1.296875 L 0.828125 -1.1875 L 0.53125 -0.15625 L 0.546875 -0.140625 Z M 0.953125 -0.796875 "/></g></g></g><g fill="#5eb23f" fill-opacity="1"><g transform="translate(22.721742, 11.597851)"><g><path d="M 0.25 0.15625 L -0.015625 -0.015625 L 1.046875 -1.015625 L 1.359375 -0.8125 L 1 0.59375 L 0.71875 0.4375 L 0.8125 0.125 L 0.484375 -0.078125 Z M 0.90625 -0.140625 L 1.078125 -0.671875 L 1.0625 -0.6875 L 0.671875 -0.28125 Z M 1.1875 -1.078125 L 0.921875 -1.21875 L 1.03125 -1.40625 L 1.296875 -1.265625 Z M 1.59375 -0.828125 L 1.359375 -0.96875 L 1.46875 -1.15625 L 1.703125 -1.015625 Z M 1.59375 -0.828125 "/></g></g></g><g fill="#5eb23f" fill-opacity="1"><g transform="translate(23.831833, 12.268994)"><g><path d="M 1.546875 -0.171875 C 1.429688 -0.296875 1.335938 -0.382812 1.265625 -0.4375 C 1.203125 -0.5 1.148438 -0.53125 1.109375 -0.53125 C 1.035156 -0.539062 0.921875 -0.453125 0.765625 -0.265625 C 0.691406 -0.171875 0.640625 -0.0859375 0.609375 -0.015625 C 0.585938 0.046875 0.582031 0.09375 0.59375 0.125 C 0.601562 0.164062 0.625 0.203125 0.65625 0.234375 C 0.695312 0.265625 0.75 0.296875 0.8125 0.328125 C 0.882812 0.359375 0.960938 0.390625 1.046875 0.421875 L 0.96875 0.671875 C 0.945312 0.660156 0.921875 0.648438 0.890625 0.640625 C 0.859375 0.640625 0.800781 0.625 0.71875 0.59375 C 0.632812 0.5625 0.5625 0.515625 0.5 0.453125 C 0.363281 0.347656 0.289062 0.21875 0.28125 0.0625 C 0.28125 -0.09375 0.359375 -0.269531 0.515625 -0.46875 C 0.671875 -0.65625 0.816406 -0.765625 0.953125 -0.796875 C 1.003906 -0.816406 1.0625 -0.820312 1.125 -0.8125 C 1.1875 -0.8125 1.242188 -0.796875 1.296875 -0.765625 C 1.347656 -0.742188 1.398438 -0.710938 1.453125 -0.671875 C 1.503906 -0.628906 1.554688 -0.578125 1.609375 -0.515625 C 1.660156 -0.453125 1.703125 -0.398438 1.734375 -0.359375 Z M 1.546875 -0.171875 "/></g></g></g><g fill="#5eb23f" fill-opacity="1"><g transform="translate(24.891542, 13.15244)"><g><path d="M 0.109375 0.125 L 1.171875 -0.796875 L 1.375 -0.5625 L 0.953125 -0.1875 L 1.25 0.15625 L 1.671875 -0.21875 L 1.875 0.03125 L 0.8125 0.953125 L 0.609375 0.703125 L 1.046875 0.328125 L 0.75 -0.015625 L 0.3125 0.359375 Z M 0.109375 0.125 "/></g></g></g><g fill="#5eb23f" fill-opacity="1"><g transform="translate(25.889372, 14.351585)"><g><path d="M 1.1875 -0.765625 L 1.765625 0.171875 L 1.53125 0.3125 L 1.3125 -0.03125 L 0.359375 0.578125 L 0.1875 0.3125 L 1.15625 -0.28125 L 0.953125 -0.625 Z M 1.1875 -0.765625 "/></g></g></g><g fill="#5eb23f" fill-opacity="1"><g transform="translate(26.508197, 15.368698)"><g><path d="M 0.0625 0.15625 L 1.34375 -0.40625 L 1.6875 0.375 L 1.453125 0.484375 L 1.234375 -0.015625 L 0.953125 0.078125 L 1.140625 0.53125 L 0.90625 0.640625 L 0.71875 0.1875 L 0.4375 0.328125 L 0.65625 0.828125 L 0.40625 0.9375 Z M 0.0625 0.15625 "/></g></g></g><g fill="#5eb23f" fill-opacity="1"><g transform="translate(27.009653, 16.514599)"><g><path d="M 1.25 0.9375 C 1.039062 1 0.878906 0.941406 0.765625 0.765625 L 0.75 0.765625 L 0.328125 1.234375 L 0.234375 0.890625 L 0.65625 0.515625 L 0.609375 0.34375 L 0.125 0.46875 L 0.046875 0.171875 L 0.6875 0 L 1.40625 -0.1875 C 1.5 0.113281 1.550781 0.285156 1.5625 0.328125 C 1.65625 0.660156 1.550781 0.863281 1.25 0.9375 Z M 0.859375 0.28125 C 0.867188 0.363281 0.878906 0.4375 0.890625 0.5 C 0.910156 0.570312 0.941406 0.613281 0.984375 0.625 C 1.023438 0.644531 1.09375 0.644531 1.1875 0.625 C 1.28125 0.601562 1.332031 0.570312 1.34375 0.53125 C 1.351562 0.5 1.347656 0.441406 1.328125 0.359375 C 1.304688 0.285156 1.285156 0.222656 1.265625 0.171875 Z M 0.859375 0.28125 "/></g></g></g></svg>